<svg xmlns="http://www.w3.org/2000/svg" width="1000" height="583.03882" viewBox="0 0 1000 583.03881"><g style="fill:none;fill-rule:evenodd;stroke:none;stroke-width:1" transform="translate(-699.626 -238.6)"><path d="M1182.886 569.475c0 90.46-65.121 119.66-152.107 120.82v.037l-86.155.006v-47.516c1.716 0 3.44-.037 5.18-.148 39.676-2.506 71.872-34.702 74.378-74.379 2.93-46.372-33.816-84.881-79.558-84.883v-37.785a82.18 82.18 0 0 0 5.178-.148c39.677-2.506 71.872-34.7 74.38-74.378 2.931-46.373-33.816-84.883-79.558-84.885v-47.547h54.113c83.973 0 168.368 30.263 168.368 113.662 0 56.221-39.374 87.291-95.15 103.893 62.728 7.527 110.931 39.997 110.931 113.25M1437.54 604.613l-6.543.002c-20.745 0-31.591-9.474-33.541-36.708-.22-3.087-.414-7.8-.585-13.646l-.012-315.65-86.472.016c-3.424.001-6.193 2.717-6.336 6.138-1.15 27.376-14.415 52.079-33.945 68.895-15.156 13.051-34.039 22.066-58.982 23.687-3.34.217-5.948 2.98-5.948 6.328v63.366a6.36 6.36 0 0 0 6.36 6.36h40.784s.05 113.89-.288 123.022c-.15 4.016-.708 26.737-.925 29.768-1.949 27.235-10.262 38.424-31.007 38.424h-8.562a6.36 6.36 0 0 0-6.362 6.357v72.978a6.36 6.36 0 0 0 6.36 6.359h226.007a6.358 6.358 0 0 0 6.359-6.36v-72.978a6.358 6.358 0 0 0-6.36-6.358" style="fill:#f04da3;fill-opacity:1;stroke-width:10.55274105"/><path d="M1690.694 596.143h-5.664c-2.582 8.944-10.813 15.493-20.588 15.493-20.402 0-25.162-25.82-27.43-39.681-8.132-49.426-30.269-89.698-90.06-98.873 67.534-13.928 107.975-59.95 107.975-114.618 0-64.975-60.893-118.65-147.878-119.809v-.056l-110.19.022v48.08c.08-.012 10.166-1.296 14.67-1.345 54.002-.585 87.97 37.99 87.97 80.794v.002c0 42.804-33.968 81.132-87.97 80.547-4.488-.05-14.511-1.324-14.66-1.346v37.895c63.726 2.915 71.238 53.59 73.087 63.73.63 3.462 1.772 13.41 1.772 23.1 0 74.052 21.996 132.842 114.066 132.842 101.591 0 121.879-73.117 104.898-106.777M944.625 642.822c-45.777.04-82.483-38.484-79.55-84.882 2.506-39.677 34.702-71.873 74.38-74.38 1.738-.109 3.462-.144 5.177-.144l-.006-37.788c-45.738-.006-82.482-38.512-79.553-84.882 2.507-39.678 34.701-71.873 74.378-74.381 1.74-.11 3.464-.147 5.18-.147v-47.549l-238.638-.009a6.366 6.366 0 0 0-6.358 6.365l.012 72.913a6.357 6.357 0 0 0 6.358 6.356h8.875c24.091 0 29.958 14.313 31.913 42.967 1.956 28.624 1.956 159.283 0 192.485-1.955 33.201-7.055 44.906-35.809 44.906-.028 0-2.425.003-5.009.01a6.359 6.359 0 0 0-6.349 6.357v72.985a6.358 6.358 0 0 0 6.36 6.358l238.638-.019z" style="fill:#402022;fill-opacity:1;stroke-width:10.55274105"/><path d="M745.669 795.972c0-6.246-3.295-8.971-11.924-8.971h-15.898v18.057h15.898c8.63 0 11.924-2.725 11.924-9.086m-16.24-40.2h-11.582v16.351h11.583c8.062 0 11.126-2.611 11.126-8.174 0-5.565-3.064-8.177-11.126-8.177m35.09 42.13c0 13.856-9.765 22.26-28.957 22.26h-34.07c-1.135 0-1.818-.682-1.818-1.819v-75.859c0-1.135.683-1.816 1.818-1.816h28.846c19.303 0 28.842 8.177 28.842 21.463 0 8.176-3.632 13.968-10.106 16.693v.228c9.653 1.59 15.444 8.177 15.444 18.85M819.023 790.067l-10.789-29.298h-.337l-10.789 29.298zm28.052 30.094H831.63c-.909 0-1.703-.341-2.044-1.476l-4.541-12.379h-33.958l-4.541 12.379c-.342 1.135-1.136 1.476-2.16 1.476h-15.215c-1.365 0-2.044-.796-1.476-2.157l29.64-75.86c.34-1.021 1.25-1.476 2.159-1.476h17.032c1.02 0 1.93.455 2.27 1.477l29.756 75.859c.452 1.361-.116 2.157-1.477 2.157zM851.497 797.562c-.227-1.249.567-2.043 1.818-2.043h14.535c1.136 0 1.704.568 2.045 1.703 1.361 5.679 5.791 8.403 13.627 8.403 8.744 0 12.833-3.407 12.833-8.631 0-4.315-2.842-7.494-10.563-8.743l-11.241-1.817c-15.671-2.612-22.828-10.335-22.828-22.827 0-14.762 10.678-24.416 30.775-24.416 19.192 0 29.87 8.745 31.231 24.19.226 1.249-.457 1.93-1.703 1.93h-14.651c-1.02 0-1.703-.681-1.93-1.817-.797-5.678-4.997-8.29-12.947-8.29-8.63 0-12.262 3.18-12.262 8.29 0 4.315 2.723 6.7 12.036 8.177l11.24 1.816c14.767 2.386 21.237 10.221 21.237 22.826 0 16.354-11.467 25.325-31.116 25.325-19.418 0-30.434-8.858-32.136-24.076M993.558 820.161h-16.465c-1.136 0-1.707-.567-1.933-1.702-2.724-17.716-10.674-23.735-25.778-23.735h-3.973v23.62c0 1.137-.798 1.817-1.934 1.817H928.83c-1.136 0-1.819-.68-1.819-1.818v-75.859c0-1.135.683-1.816 1.819-1.816h14.646c1.136 0 1.934.68 1.934 1.816v34.637h6.811l21.01-35.205c.453-.907 1.25-1.248 2.27-1.248h17.264c1.476 0 2.044.909 1.246 2.27l-22.824 38.045c13.06 5.792 21.578 18.055 24.19 37.134.11 1.248-.568 2.044-1.818 2.044M1008.2 818.343v-75.859c0-1.135.683-1.816 1.818-1.816h14.648c1.135 0 1.933.681 1.933 1.816v75.86c0 1.136-.798 1.817-1.933 1.817h-14.647c-1.136 0-1.818-.68-1.818-1.818M1042.266 818.343v-75.859c0-1.135.683-1.816 1.818-1.816h14.195c1.02 0 1.817.341 2.385 1.135l33.84 47.697h.226v-47.016c0-1.135.682-1.816 1.818-1.816h14.65c1.136 0 1.93.681 1.93 1.816v75.86c0 1.136-.794 1.817-1.93 1.817h-14.31c-.908 0-1.702-.34-2.27-1.135l-33.843-47.583h-.111v46.9c0 1.137-.798 1.818-1.933 1.818h-14.647c-1.135 0-1.818-.68-1.818-1.818M1250.479 768.037c0-6.816-4.204-10.45-12.607-10.45h-14.08v21.01h14.08c8.403 0 12.607-3.633 12.607-10.56m17.942 52.124h-16.465c-1.136 0-1.819-.567-2.045-1.702-3.18-17.035-9.769-22.713-21.693-22.713h-4.425v22.597c0 1.137-.798 1.818-1.933 1.818h-14.648c-1.135 0-1.818-.68-1.818-1.818v-75.859c0-1.135.683-1.816 1.818-1.816h31.116c19.645 0 31.001 10.335 31.001 27.37 0 10.786-4.655 19.304-13.174 23.732 7.042 4.998 12.04 14.423 13.968 26.347.227 1.248-.452 2.044-1.702 2.044M1339.938 780.414c0-13.853-8.975-23.961-22.602-23.961s-22.598 10.108-22.598 23.96c0 13.856 8.97 23.964 22.598 23.964 13.627 0 22.602-10.108 22.602-23.963m-64.05 0c0-23.394 17.941-41.222 41.448-41.222s41.452 17.828 41.452 41.222c0 23.393-17.945 41.224-41.452 41.224-23.507 0-41.449-17.83-41.449-41.224M1414.4 795.972c0-6.246-3.294-8.971-11.923-8.971h-15.902v18.057h15.902c8.629 0 11.924-2.725 11.924-9.086m-16.239-40.2h-11.587v16.351h11.587c8.062 0 11.126-2.611 11.126-8.174 0-5.565-3.064-8.177-11.126-8.177m35.09 42.13c0 13.856-9.77 22.26-28.962 22.26h-34.065c-1.135 0-1.818-.682-1.818-1.819v-75.859c0-1.135.683-1.816 1.818-1.816h28.842c19.307 0 28.846 8.177 28.846 21.463 0 8.176-3.632 13.968-10.107 16.693v.228c9.654 1.59 15.445 8.177 15.445 18.85M1490.708 795.972c0-6.246-3.294-8.971-11.924-8.971h-15.902v18.057h15.902c8.63 0 11.924-2.725 11.924-9.086m-16.238-40.2h-11.587v16.351h11.587c8.061 0 11.126-2.611 11.126-8.174 0-5.565-3.065-8.177-11.126-8.177m35.089 42.13c0 13.856-9.769 22.26-28.961 22.26h-34.065c-1.135 0-1.818-.682-1.818-1.819v-75.859c0-1.135.683-1.816 1.818-1.816h28.842c19.307 0 28.845 8.177 28.845 21.463 0 8.176-3.632 13.968-10.106 16.693v.228c9.654 1.59 15.445 8.177 15.445 18.85M1521.026 818.343v-75.859c0-1.135.683-1.816 1.818-1.816h14.647c1.135 0 1.934.681 1.934 1.816v75.86c0 1.136-.799 1.817-1.934 1.817h-14.647c-1.135 0-1.818-.68-1.818-1.818M1555.092 818.343v-75.859c0-1.135.682-1.816 1.818-1.816h14.194c1.02 0 1.818.341 2.386 1.135l33.84 47.697h.226v-47.016c0-1.135.682-1.816 1.817-1.816h14.651c1.136 0 1.93.681 1.93 1.816v75.86c0 1.136-.794 1.817-1.93 1.817h-14.309c-.91 0-1.703-.34-2.27-1.135l-33.844-47.583h-.112v46.9c0 1.137-.798 1.818-1.933 1.818h-14.647c-1.135 0-1.818-.68-1.818-1.818M1636.37 797.562c-.227-1.249.568-2.043 1.818-2.043h14.536c1.135 0 1.703.568 2.044 1.703 1.362 5.679 5.791 8.403 13.627 8.403 8.745 0 12.833-3.407 12.833-8.631 0-4.315-2.838-7.494-10.563-8.743l-11.24-1.817c-15.672-2.612-22.825-10.335-22.825-22.827 0-14.762 10.674-24.416 30.775-24.416 19.192 0 29.866 8.745 31.227 24.19.23 1.249-.452 1.93-1.703 1.93h-14.647c-1.024 0-1.706-.681-1.933-1.817-.794-5.678-4.997-8.29-12.944-8.29-8.633 0-12.266 3.18-12.266 8.29 0 4.315 2.728 6.7 12.04 8.177l11.241 1.816c14.762 2.386 21.236 10.221 21.236 22.826 0 16.354-11.471 25.325-31.116 25.325-19.418 0-30.433-8.858-32.14-24.076" style="fill:#402022;fill-opacity:1;stroke-width:4.97427082"/><circle cx="1159.0671" cy="780.23938" r="19.383892" style="opacity:1;fill:#f04da3;fill-opacity:1;stroke:none;stroke-width:3.03312397;stroke-miterlimit:4;stroke-dasharray:none"/></g></svg>